<svg width="1290" height="1290" viewBox="0 0 1290 1290" fill="none" xmlns="http://www.w3.org/2000/svg">
<g filter="url(#filter0_n_132_5)">
<rect width="1290" height="1290" fill="black"/>
<path d="M669.415 290C734.072 290 786.685 305.132 826.679 335.978C867.032 365.903 895.86 406.249 913.185 456.784L914.018 459.113C931.371 508.111 939.999 562.65 940 622.661C940 682.957 931.092 738.262 913.194 788.515L913.193 788.514C895.861 838.402 867.029 878.736 826.704 909.327L826.698 909.332L826.691 909.337C786.693 939.511 734.078 954.306 669.415 954.306H473.01L472.295 942.348C488.738 940.375 498.852 935.892 504.188 930.022L504.284 929.917L504.385 929.815C511.41 922.791 514.93 916.69 515.968 911.534L517.48 903.22C517.65 902.287 517.777 901.587 517.862 901.12C517.873 901.061 517.883 901.006 517.892 900.954V343.404C517.889 343.387 517.885 343.369 517.881 343.352C517.797 342.928 517.669 342.292 517.5 341.444C517.16 339.748 516.652 337.204 515.973 333.812C514.941 328.651 511.42 322.542 504.385 315.507L504.284 315.406L504.188 315.301C498.77 309.341 488.537 304.561 472.062 301.925L473.01 290H669.415ZM583.827 932.129H652.091C702.51 931.456 743.475 917.549 775.453 890.799C807.731 863.119 831.584 826.12 846.889 779.54C862.27 732.052 869.995 679.776 869.995 622.661C869.995 536.65 852.192 464.16 816.905 404.904L816.884 404.87L816.865 404.836C782.741 345.775 728.799 314.849 654.039 312.177H583.827V932.129Z" fill="white" stroke="white" stroke-width="12"/>
<path d="M553.404 334.776C618.061 334.776 670.674 349.908 710.669 380.754C751.022 410.679 779.85 451.025 797.175 501.56L798.008 503.889C815.361 552.887 823.989 607.426 823.989 667.437C823.989 727.733 815.082 783.038 797.184 833.291L797.183 833.29C779.851 883.179 751.019 923.512 710.693 954.103L710.688 954.108L710.681 954.113C670.683 984.287 618.068 999.082 553.404 999.082H357L356.285 987.124C372.728 985.151 382.842 980.668 388.178 974.799L388.273 974.693L388.375 974.592C395.4 967.567 398.92 961.466 399.958 956.31L401.47 947.996C401.639 947.063 401.767 946.363 401.852 945.896C401.862 945.837 401.872 945.782 401.882 945.73V388.18C401.878 388.163 401.875 388.146 401.871 388.128C401.786 387.704 401.659 387.068 401.489 386.22C401.15 384.524 400.641 381.98 399.963 378.588C398.931 373.427 395.41 367.318 388.375 360.283L388.273 360.182L388.178 360.077C382.76 354.117 372.527 349.337 356.052 346.701L357 334.776H553.404ZM467.816 976.905H536.081C586.5 976.232 627.464 962.326 659.442 935.575C691.721 907.895 715.574 870.896 730.879 824.316C746.259 776.828 753.984 724.552 753.984 667.437C753.984 581.427 736.181 508.936 700.895 449.68L700.874 449.646L700.854 449.612C666.73 390.551 612.789 359.625 538.028 356.953H467.816V976.905Z" fill="white" stroke="white" stroke-width="12"/>
</g>
<defs>
<filter id="filter0_n_132_5" x="0" y="0" width="1290" height="1290" filterUnits="userSpaceOnUse" color-interpolation-filters="sRGB">
<feFlood flood-opacity="0" result="BackgroundImageFix"/>
<feBlend mode="normal" in="SourceGraphic" in2="BackgroundImageFix" result="shape"/>
<feTurbulence type="fractalNoise" baseFrequency="2 2" stitchTiles="stitch" numOctaves="3" result="noise" seed="8703" />
<feColorMatrix in="noise" type="luminanceToAlpha" result="alphaNoise" />
<feComponentTransfer in="alphaNoise" result="coloredNoise1">
<feFuncA type="discrete" tableValues="1 1 1 1 1 1 1 1 1 1 1 1 1 1 1 1 1 1 1 1 1 1 1 1 1 1 1 1 1 1 1 1 1 1 1 1 1 1 1 1 1 1 1 1 1 1 1 1 1 1 1 0 0 0 0 0 0 0 0 0 0 0 0 0 0 0 0 0 0 0 0 0 0 0 0 0 0 0 0 0 0 0 0 0 0 0 0 0 0 0 0 0 0 0 0 0 0 0 0 0 "/>
</feComponentTransfer>
<feComposite operator="in" in2="shape" in="coloredNoise1" result="noise1Clipped" />
<feFlood flood-color="rgba(33, 33, 33, 0.1)" result="color1Flood" />
<feComposite operator="in" in2="noise1Clipped" in="color1Flood" result="color1" />
<feMerge result="effect1_noise_132_5">
<feMergeNode in="shape" />
<feMergeNode in="color1" />
</feMerge>
</filter>
</defs>
</svg>
